<?xml version="1.0" standalone="no"?>
<!DOCTYPE svg PUBLIC "-//W3C//DTD SVG 20010904//EN" "http://www.w3.org/TR/2001/REC-SVG-20010904/DTD/svg10.dtd">
<svg version="1.0" xmlns="http://www.w3.org/2000/svg"
 width="512.000000pt" height="512.000000pt" viewBox="0 0 512.000000 512.000000"
 preserveAspectRatio="xMidYMid meet">

<g transform="translate(0.000000,512.000000) scale(0.100000,-0.100000)"
fill="rgba(3, 105, 161, 1)" stroke="none">
<path d="M2235 4029 c-943 -46 -1697 -310 -1868 -654 -43 -86 -50 -129 -43
-265 21 -416 163 -807 417 -1142 80 -105 260 -291 364 -375 320 -259 716 -428
1140 -489 176 -26 477 -23 661 5 410 62 794 230 1109 484 171 138 371 366 484
550 178 291 280 624 297 967 7 136 0 179 -43 265 -215 432 -1300 714 -2518
654z m787 -169 c724 -61 1323 -248 1531 -480 86 -96 105 -174 64 -264 -81
-177 -382 -339 -844 -455 -87 -21 -179 -42 -204 -46 l-45 -7 -190 304 c-105
166 -200 324 -213 350 -56 118 -269 191 -561 191 -292 0 -504 -72 -562 -191
-20 -43 -380 -626 -398 -645 -9 -11 -139 14 -305 58 -425 111 -713 271 -790
437 -47 102 -26 179 79 283 262 258 909 437 1741 479 116 6 566 -3 697 -14z
m-237 -586 c82 -16 185 -56 185 -72 0 -18 -116 -61 -204 -77 -183 -31 -437
-13 -558 42 -32 14 -58 30 -58 34 0 5 17 17 38 28 126 64 388 84 597 45z
m-672 -239 c25 -14 89 -38 144 -52 91 -25 112 -27 303 -27 191 0 212 2 303 27
55 14 119 37 143 51 l44 25 25 -37 c13 -20 80 -127 149 -237 106 -169 123
-201 108 -206 -9 -4 -94 -15 -187 -25 -246 -27 -925 -27 -1170 0 -93 10 -177
21 -187 25 -14 5 7 45 130 243 81 131 148 237 148 238 1 0 22 -11 47 -25z
m-1345 -345 c292 -145 659 -236 1192 -297 224 -25 976 -25 1200 0 632 72 1053
192 1349 387 50 33 91 55 91 49 0 -26 -45 -182 -77 -269 -178 -476 -535 -865
-1007 -1095 -310 -151 -608 -219 -961 -219 -349 1 -639 68 -950 219 -471 229
-830 618 -1008 1095 -32 87 -77 243 -77 269 0 7 34 -11 76 -40 42 -28 119 -72
172 -99z"/>
</g>
</svg>
